<svg xmlns="http://www.w3.org/2000/svg" viewBox="0 0 120 97">
<!-- SVG created with Arrow, by QuiverAI (https://quiver.ai) -->
  <style type="text/css">.cls-0 {fill:#F2F2F3;}
.cls-1 {fill:#C72035;}
.cls-2 {fill:none;stroke:#2F1B15;stroke-width:1.4307;stroke-linecap:round;stroke-linejoin:round;stroke-miterlimit:10;}
.cls-3 {fill:#961A28;}
.cls-4 {fill:#FAB488;}
.cls-5 {fill:#D89878;}
.cls-6 {fill:none;stroke:#2F1B15;stroke-width:1.4307;stroke-linejoin:round;stroke-miterlimit:10;}
.cls-7 {fill:#F9AF2C;}
.cls-8 {fill:#2F1B15;}
.cls-9 {fill:#FFFFFF;stroke:#2F1B15;stroke-width:1.4307;stroke-linecap:round;stroke-linejoin:round;stroke-miterlimit:10;}
.cls-10 {fill:#CBCBCB;}
.cls-11 {fill:#F9AF2C;stroke:#2F1B15;stroke-width:1.4307;stroke-linecap:round;stroke-linejoin:round;stroke-miterlimit:10;}
.cls-12 {fill:none;stroke:#966049;stroke-width:1.5609;stroke-linecap:round;stroke-linejoin:round;stroke-miterlimit:10;}
.cls-13 {fill:#F9AF2C;stroke:#2F1B15;stroke-width:1.4827;stroke-linejoin:round;stroke-miterlimit:10;}
.cls-14 {fill:#FAB488;stroke:#2F1B15;stroke-width:1.4307;stroke-linecap:round;stroke-linejoin:round;stroke-miterlimit:10;}
.cls-15 {fill:none;stroke:#2F1B15;stroke-width:1.618;stroke-linecap:round;stroke-linejoin:round;stroke-miterlimit:10;}
.cls-16 {fill:#2F1B15;}
.cls-17 {fill:#CBCBCB;stroke:#2F1B15;stroke-width:1.4307;stroke-linecap:round;stroke-linejoin:round;stroke-miterlimit:10;}
.cls-18 {fill:none;stroke:#8C5A45;stroke-width:1.5609;stroke-linecap:round;stroke-linejoin:round;stroke-miterlimit:10;}
.cls-19 {fill:#DB8F29;}
.cls-20 {fill:#C72035;stroke:#2F1B15;stroke-width:1.4307;stroke-linecap:round;stroke-linejoin:round;stroke-miterlimit:10;}
.cls-21 {fill:#F9AF2C;stroke:#2F1B15;stroke-width:1.4307;stroke-linecap:round;stroke-linejoin:round;stroke-miterlimit:10;}
.cls-22 {fill:#F9AF2C;stroke:#2F1B15;stroke-width:1.4827;stroke-linecap:round;stroke-linejoin:round;stroke-miterlimit:10;}
.cls-23 {fill:#D89878;}
.cls-24 {fill:none;stroke:#2F1B15;stroke-width:1.5609;stroke-linecap:round;stroke-linejoin:round;stroke-miterlimit:10;}
.cls-25 {fill:none;stroke:#2F1B15;stroke-width:1.618;stroke-linecap:round;stroke-miterlimit:10;}</style>
  <path class="cls-1" d="m2.7 94.1c2.4-10.3 5.8-34.5 7.3-52.6 0.9-6.8 2.4-12.5 6-17.1 3.7-4.8 9.1-9.2 17.6-9.4 7.9-0.2 13.4 2.8 17.4 7.1 5.9 6.4 6.6 13.7 7.3 19.9 2.2 20.9 4.1 36.9 6.8 52l-62.4 0.1z"/>
  <path class="cls-2" d="m12.2 93.9c2.7-13.9 2.8-31.3 2.1-50.5"/>
  <path class="cls-1" d="m14.1 79c4-2.5 11.7-3.9 11.7-3.9l21.2 0.3h0.3c-4.8 4.6-15.7 11.4-31.5 18.5h-1.7v-14.9z"/>
  <path class="cls-3" d="m14.5 78.6c4.8-2.2 11.3-3.5 11.3-3.5l0.5-6.4-8.2-6.4-3.8 1.3 0.2 15z"/>
  <path class="cls-2" d="m13.7 79.1c4-2.5 12.1-4 12.1-4l21.5 0.3c-4.8 4.6-15.7 11.4-31.5 18.4"/>
  <path class="cls-4" d="m20.3 76.6c0.3 3.6 4 8.3 10.6 9.7l7-4.3-3-2.7-9.6-4-5 1.3z"/>
  <path class="cls-2" d="m20.3 76.6c0.3 3.6 3.5 8.2 10.5 9.7"/>
  <path class="cls-4" d="m26.2 68.5c0.2 2.7-0.7 6.9-0.7 6.9 1.8 1.9 4.3 3.2 8.2 3.2 3.6 0 6.3-1.1 8.3-3 0 0-1.1-4.1-1.1-6.9l-14.7-0.2z"/>
  <path class="cls-5" d="m26.3 72.3c2.3 0.8 4.6 1.8 7.2 1.8 2.9 0 5.1-0.8 7.2-1.7l-0.4-3.3-13.7-0.1-0.3 3.3z"/>
  <path class="cls-6" d="m25.5 75.4c1.8 1.9 4.5 3.2 8.2 3.2 3.6 0 6.4-1 8.4-3.2"/>
  <path class="cls-2" d="m26.2 68.5c0.2 2.7-0.7 6.9-0.7 6.9"/>
  <path class="cls-2" d="m40.7 68.7c0 3.2 1.3 6.7 1.3 6.7"/>
  <path class="cls-7" d="m22 76c1.1 2.5 5.4 5.8 10.9 5.9 5.8 0.2 8-1.1 9.6-2.4 1.8-1.4 3.4-2.7 3.5-3.9l-4-0.5c-1.6 1.4-3.3 3.3-8.5 3.5-4.1 0-6.9-1.6-8.3-3.3l-3.2 0.7z"/>
  <path class="cls-2" d="m21.7 76c1.6 2.6 5.5 5.9 11.8 5.9 5.4 0 7.4-1.1 9-2.4"/>
  <path class="cls-7" d="m14.5 55.6 0.2 7.9h2.9l0.2-4.1-1.6-3.6-1.7-0.2z"/>
  <path class="cls-2" d="m14.5 55.6 0.2 7.9h2.9l0.2-4.1"/>
  <path class="cls-7" d="m52.6 55.6-0.3 7.8h-2.9l-0.5-4 2.1-3.4 1.6-0.4z"/>
  <path class="cls-2" d="m52.6 55.6-0.3 7.8h-2.9l-0.3-3.5"/>
  <path class="cls-4" d="m14.4 44.9c0.1 11.7 7.2 25.8 19 25.7 12.8 0 19.2-11.4 19.6-21.7l0.1-4-1.5-11-18.1-9.6-16.4 10-2.7 10.6z"/>
  <path class="cls-5" d="m15.4 51.4c1.9 7.1 7.9 16 18 16 9.3 0 15.1-6.9 18.2-13.6-1.1 7.3-8.2 16.8-18.2 16.8-10.3 0-16.9-8.8-18-19.2z"/>
  <path class="cls-2" d="m14.4 44.9c0.1 11.7 6.8 25.8 19 25.7 12.8 0 19.2-11.4 19.7-21l0.2-4"/>
  <path class="cls-8" d="m14 45.6 2.2-3.5c1.6-2.7 3.6-4 6.7-5.3 3.2-1.4 6.4-3.5 7.7-5.2 1.2 2.3 2.6 3.2 3.7 3.2 1.6 0 2.8-1.5 3.2-3.6 1.8 1.6 3.7 3.2 7.2 4.9 3.8 1.8 5.2 3.3 8.8 9.5 0.4-9.3-0.9-16.1-7.3-21.2-4.3-3.4-7.8-4.7-12.7-4.7-9.6 0-19.4 8.2-19.5 20.2v5.7z"/>
  <path class="cls-2" d="m14 45 2.2-3.5c1.6-2.7 3.6-4.4 6.7-5.4 3.2-1.3 6.4-3.3 7.7-5.2 1.2 2.2 2.5 3.9 3.7 3.9 1.8 0 3-1.8 3.2-3.6 1.8 1.8 3.7 3.2 7.2 4.9 3.8 1.8 5.4 3.3 8.8 8.9"/>
  <path class="cls-2" d="m14 40.3c0.5-10.9 8.4-20.6 19.4-20.6 7.3-0.1 15.5 4.4 18.7 12.7 1.7 4.7 1.6 11 1.4 16.2"/>
  <path class="cls-9" d="m32.6 19.9h2.3v8h-2.3v-8z"/>
  <path class="cls-7" d="m37.1 31.3c0 1.8-1.5 3.6-3.4 3.6s-3.5-1.6-3.5-3.6c0-1.8 1.6-3.4 3.5-3.4s3.4 1.6 3.4 3.4z"/>
  <path class="cls-2" d="m37.1 31.3c0 1.8-1.5 3.6-3.4 3.6s-3.3-1.6-3.3-3.4c0-2 1.4-3.6 3.3-3.6s3.4 1.6 3.4 3.4z"/>
  <path class="cls-1" d="m34.7 40.2c0 0.5-0.4 1-1 1s-1.1-0.5-1.1-1 0.5-1 1.1-1 1 0.4 1 1z"/>
  <path class="cls-2" d="m2.7 94.1c2.4-10.3 5.8-34.5 7.3-52.6 0.9-6.8 2.1-12.1 6-17.1 4-5 9.1-9.2 17.6-9.4 7.9-0.2 13.4 2.8 17.4 7.1 5.8 6.1 6.6 13.7 7.3 19.9 2.2 20.9 4.1 36.9 6.8 51.9"/>
  <path class="cls-12" d="m31.3 54.3c1.2 1 3 1.5 4.7 0.1"/>
  <path class="cls-15" d="m27.9 60.1c3 1.7 8 2 11.5 0"/>
  <path class="cls-3" d="m40.9 68.7 1 6 9.1 0.7 1.6-11.9h-3.5l-0.2-1.5-5.3 5-2.7 1.7z"/>
  <path class="cls-2" d="m40.9 68.7c0 1.9 0.6 6 1.6 6.4l8.5 0.3"/>
  <path class="cls-16" d="m26.9 45.3c0.9 1.5 0.5 4.2-1.3 5.2-2.7 0.9-4-2.1-3.5-4.6 1-2.9 3.7-2.9 4.8-0.6z"/>
  <path class="cls-17" d="m26.4 45.8c0 0.7-0.4 1.2-0.9 1.2s-1-0.5-1-1.2 0.5-1.2 1-1.2 0.9 0.5 0.9 1.2z"/>
  <path class="cls-2" d="m20.9 45.5c0.6 0.6 2.2 0.8 2.5 0.4"/>
  <path class="cls-16" d="m40.9 45.3c-0.9 1.5-0.6 4.2 1.4 5.3 2.3 0.8 3.8-1.7 3.2-4.5-0.9-2.7-3.6-3.1-4.6-0.8z"/>
  <path class="cls-17" d="m44.5 45.8c0 0.7-0.5 1.2-1 1.2s-1-0.5-1-1.2 0.5-1.2 1-1.2 1 0.5 1 1.2z"/>
  <path class="cls-2" d="m46.5 45.5c-0.3 0.3-1.4 0.8-1.9 0.6"/>
  <path class="cls-2" d="m20.2 42c1.4-1 4.9-2.3 8.3-0.2"/>
  <path class="cls-2" d="m38.9 41.8c1.8-1.1 5.2-1.9 8.1 0.1"/>
  <path class="cls-1" d="m62.3 78.8c4.3-2.9 11.1-4.8 14.4-5.4l19-0.3c3.7 0.7 8.8 2 12.8 4.5 4.4 2.8 8.9 7.8 9 16.5l-52.2-0.1-3-15.2z"/>
  <path class="cls-2" d="m62.3 78.8c4.3-2.9 11.1-4.8 14.4-5.4l19-0.3c3.7 0.7 8.8 1.9 12.8 4.2 4.4 2.6 8.9 7.3 9.1 16.8l-114.9-0.1"/>
  <path class="cls-21" d="m71.1 74.7c0.4 6.4 2 13.7 4.9 19.3h3.9c-3.4-6.6-4.9-13.1-5.9-20l-2.9 0.7z"/>
  <path class="cls-21" d="m98.4 74.1c-0.5 7.7-2.2 13.5-5.8 19.9h3.6c2.2-3.9 4.8-11 5.3-19.1l-3.1-0.8z"/>
  <path class="cls-21" d="m74.4 74.1c1.3 4.3 5.7 8.2 11.9 8.2 5.8 0 10.2-2.9 12.2-8.2l-2.8-1-18.8 0.3-2.5 0.7z"/>
  <path class="cls-20" d="m76.9 70v3c1 2.6 4.6 6 9.3 6 5.4 0.1 8.3-3 9.5-5.4v-3.6c-3.1 0-8.3 2.6-9.5 7.1-0.8-3.7-4.2-6.7-9.3-7.1z"/>
  <path class="cls-21" d="m89.5 85.4c0 1.6-1.4 3.4-3.3 3.4-1.7 0-3.2-1.4-3.2-3.2 0-1.6 1.5-3.1 3.2-3.1 1.8 0 3.3 1.3 3.3 2.9z"/>
  <path class="cls-7" d="m87.7 91.6c0 0.5-0.3 1-1.2 1-0.6 0-1.1-0.5-1.1-1 0-0.6 0.5-1.1 1.1-1.1s1.2 0.5 1.2 1.1z"/>
  <path class="cls-7" d="m87.7 91.6c0 0.5-0.3 1-1.2 1-0.6 0-1.1-0.5-1.1-1 0-0.6 0.5-1.1 1.1-1.1s1.2 0.5 1.2 1.1z"/>
  <path class="cls-21" d="m87.7 91.6c0 0.5-0.3 1-1.2 1-0.6 0-1.1-0.5-1.1-1 0-0.6 0.5-1.1 1.1-1.1s1.2 0.5 1.2 1.1z"/>
  <path class="cls-4" d="m77.9 66.6v3.4l8.5 3.1 8.1-3.1v-3.6l-16.6 0.2z"/>
  <path class="cls-23" d="m77.9 70.1v-3.1l16.6-0.4v3.5l-4.6 3h-5.4l-6.6-3z"/>
  <path class="cls-2" d="m77.9 66.6v3.4l8.5 3.1 8.1-3.1v-3.6l-16.6 0.2z"/>
  <path class="cls-14" d="m66.5 41.4c-4.1 0-6 7-2.6 11.2h4l-1.4-11.2z"/>
  <path class="cls-14" d="m106 41.5c4.1 0.6 6 7.3 2.5 11.1h-3.5l1-11.1z"/>
  <path class="cls-4" d="m66.6 41.5c0 9.9 3 27.6 19.6 27.7 10.4 0.2 19.5-7.7 19.8-27.7-3.3-5.6-8.3-10.3-11.9-12.6l-13.2 0.2c-5 3.3-10.8 6.3-12.5 8.7l-1.8 3.7z"/>
  <path class="cls-23" d="m67.9 52.4c2.1 4 6.6 13.6 17.7 13.7 10 0.3 15.9-6.6 18.9-13.5-2 10.5-9.4 16.5-18.3 16.6-9.3 0.2-16.8-7.6-18.3-16.8z"/>
  <path class="cls-2" d="m66.5 41.5c0 9.9 3.1 27.6 19.7 27.7 10.4 0.2 19.5-7.6 19.8-27.7"/>
  <path class="cls-16" d="m79.6 44.8c0 1.7-1.1 3.3-2.7 3.3-1.4 0-2.5-1.6-2.5-3.3 0-1.8 1.1-3.4 2.5-3.4 1.5 0 2.7 1.6 2.7 3.4z"/>
  <path class="cls-10" d="m78.4 43.4c0 0.5-0.3 0.9-0.7 0.9-0.3 0-0.8-0.4-0.8-0.9 0-0.4 0.4-0.9 0.7-0.9 0.4 0 0.8 0.5 0.8 0.9z"/>
  <path class="cls-16" d="m97.9 44.8c0 1.8-1 3.4-2.7 3.4-1.3 0-2.5-1.6-2.5-3.4s1.2-3.4 2.5-3.4c1.5 0 2.7 1.6 2.7 3.4z"/>
  <path class="cls-10" d="m96.6 43.4c0 0.5-0.2 0.9-0.6 0.9s-0.8-0.4-0.8-0.9c0-0.4 0.3-0.9 0.7-0.9 0.3 0 0.7 0.5 0.7 0.9z"/>
  <path class="cls-24" d="m83.8 52.3c1.1 1.1 3.6 1.7 5.1 0.1"/>
  <path class="cls-25" d="m80.4 58.2c2.7 1.4 7.6 2 11.6 0.2"/>
  <path class="cls-8" d="m80.4 29.6c2.7 2.5 10.3 3.5 14.1 0.4-2-2.1-5.4-4.5-6.9-5.6l-7.2 5.2z"/>
  <path class="cls-2" d="m80.4 29.6c2.7 2 10.3 3 14.1-0.2"/>
  <path class="cls-1" d="m62.6 43.4c-2.5-3.5-4.2-8.3-4.2-15.2 0-12.1 14.7-24.7 31-25.7 5.1-0.1 8.2 1 11.7 2.7 4.4 2.3 11.6 8.6 13.4 15.4 2 7.2 1.2 15.8-3.4 22.4l-1.6 1.4-3.1-2.9-11.4-11.6-7.4-5.5-19.2 13.4-5.8 5.6z"/>
  <path class="cls-21" d="m59.4 26.1 8.3-5.5c8.9-5.5 19.2-13.2 23.3-17.6 1.7 0 4.6 0 7 1.5-3.1 4.5-11.6 12-18 16.6-7.1 5.3-15.5 9.3-20.5 15-0.9-1.7-1.1-6.2-1-9.5l0.9-0.5z"/>
  <path class="cls-21" d="m98 4.5c2.1 0.6 4.7 2.1 6.1 3.3-4.5 7-13 13.8-16.5 16.6-8.9 6.7-16.9 10.5-25 19-1.1-1.4-2.7-4.6-3.1-6.9 7.2-7.4 15.2-9.9 26.1-19 5.3-4.4 9.9-9.1 12.4-12.3v-0.7z"/>
  <path class="cls-21" d="m100.5 13.1-4 4.3c6 2 13 6.6 18 12.2 0.4-3.5-0.5-7.7-1.4-10.2-3.2-2.8-8.4-5.5-12.6-6.3z"/>
  <path class="cls-19" d="m92 21-4.1 3.6c5.7 2.5 14 8.8 18.5 16.9l3.6 2.5 2.6-3.9c-3-6.7-11.2-15.1-20.6-19.1z"/>
  <path class="cls-2" d="m100.5 13.1c3.1 0.7 7.4 2.3 12.6 5.8"/>
  <path class="cls-2" d="m96.4 17.4c4.7 1.4 12.1 5.5 18.1 12.5"/>
  <path class="cls-2" d="m92 21c4.5 1.8 15.6 7.5 20.6 18.9"/>
  <path class="cls-2" d="m60.4 25.1c6.5-4.6 19-11 29.5-20.7l1.1-1.3"/>
  <path class="cls-2" d="m62.6 43.4c-2.5-3.5-4.2-8.3-4.2-15.2 0-12.1 14.7-24.7 31-25.7 5.1-0.1 8 1.1 11.6 2.7 4.4 2.3 12.6 8.9 14 17.7 1.4 6.6 0.5 15.1-4.9 21.5"/>
  <path class="cls-22" d="m66 51.8c-1.1 0-2.4 0.8-2.4 2 0 1.1 0.9 2 2 2 1 0 2-0.8 2-1.9s-0.6-2.1-1.6-2.1z"/>
  <path class="cls-21" d="m65.6 55.9c-1.1 0.5-2.7 1.5-2.9 3.5l-0.1 1.6h6v-1.4c-0.2-2.2-1.5-3.5-3-3.7z"/>
  <path class="cls-22" d="m106.7 51.8c-1.1-0.2-2.2 0.6-2.2 2 0 1.2 1 2 2.1 2 1 0 2.3-1 2-2.3-0.1-0.9-0.7-1.6-1.9-1.7z"/>
  <path class="cls-21" d="m106.6 56.1c-1.4 0.3-2.7 1.5-2.9 3.4v1.5h5.8l-0.1-1.6c-0.2-1.9-1.3-3-2.8-3.3z"/>
  <path class="cls-25" d="m72.6 39.2c1.8-1.2 5.4-2.1 8.1-0.2"/>
  <path class="cls-25" d="m91.6 39.1c2-1.3 5.3-1.7 8.1 0"/>
</svg>